# xmcd
# Track frame offsets:
# 150
# 18940
# 31431
# 42438
# 56779
# 69920
# 83791
# 96907
# 110495
# 128905
# 141933
# 154748
#
# Disc length: 2250 seconds
# Revision: 0
# Processed by: cddbd v1.4PL0 Copyright (c) Steve Scherf et al.
# Submitted via: VisiTrax 2.9.5.180 - For more info visit www.synapsa.com
#
DISCID=a108c80c
DTITLE=Les Meekins - Truck stop roses
DYEAR=1900
DGENRE=
TTITLE0=Truck stop roses
TTITLE1=The only thing she left me (was alone)
TTITLE2=Everything at my fingertips (but you)
TTITLE3=What a pity
TTITLE4=Do you wanna fool around
TTITLE5=Dancin' not romancin'
TTITLE6=Leaving heartaches in my tracks
TTITLE7=When your memory's at it's best
TTITLE8=Green river
TTITLE9=Hey mr. bartender
TTITLE10=Hell has barstools
TTITLE11=Purebreds don't cry
EXTD=
EXTT0=
EXTT1=
EXTT2=
EXTT3=
EXTT4=
EXTT5=
EXTT6=
EXTT7=
EXTT8=
EXTT9=
EXTT10=
EXTT11=
PLAYORDER=
